# xmcd CD database file
# Copyright (C) 1997 Ti Kan
# 
# Track frame offsets:
#     225
#     16110
#     34980
#     53398
#     78555
#     101615
#     116890
#     135763
#     155538
#     172815
# 
# Disc length: 2572 seconds
# 
# Revision: 1
# Processed by: cddbd v1.4b41PL1 Copyright (c) Steve Scherf et al.
# Submitted via: DiscPlay 4.0.4
# 
DISCID=6e0a090a
DTITLE=Taj Mahal - Taj
DYEAR=1900
DGENRE=
TTITLE0=Everybody Is Somebody
TTITLE1=Paradise
TTITLE2=Do I Love Her
TTITLE3=Light Of The Pacific
TTITLE4=Deed I Do
TTITLE5=Soothin'
TTITLE6=Pillow Talk
TTITLE7=Local Local Girl
TTITLE8=Kauai Kalypso
TTITLE9=French Letter
EXTD=
EXTT0=
EXTT1=
EXTT2=
EXTT3=
EXTT4=
EXTT5=
EXTT6=
EXTT7=
EXTT8=
EXTT9=
PLAYORDER=
